<?xml version="1.0" encoding="utf-8"?>
<!-- Generator: Adobe Illustrator 26.0.3, SVG Export Plug-In . SVG Version: 6.00 Build 0)  -->
<svg version="1.1" id="Ebene_1" xmlns="http://www.w3.org/2000/svg" xmlns:xlink="http://www.w3.org/1999/xlink" x="0px" y="0px"
	 viewBox="0 0 1650 870" style="enable-background:new 0 0 1650 870;" xml:space="preserve">
<style type="text/css">
	.st0{fill:#FD513B;}
	.st1{fill:#1EB0F9;}
	.st2{fill:#FF153F;}
	.st3{fill:#8962F8;}
	.st4{fill:#006EC7;}
	.st5{fill:#64AC1E;}
	.st6{fill:#00CDA5;}
	.st7{fill:#FFDA3A;}
	.st8{fill:#030425;}
	.st9{fill:#1D1D1B;}
</style>
<path class="st1" d="M420,449.5v105.2c0,58.9-46.2,105.2-105,105.2s-105-46.3-105-105.2V449.5h29.4v105.2
	c0,42.1,33.6,75.8,75.6,75.8s75.6-33.7,75.6-75.8l0.2-105.2H420z M331.8,449.5v105.2c0,9-6.3,16.8-16.8,16.8s-16.8-6.7-16.8-16.8
	V449.5h-29.4v105.2c0,25.9,20.9,46.3,46.2,46.3s46.2-19.2,46.2-46.3V449.5H331.8z M268.8,210l46.2,88.4l46.2-88.4h-29.4L315,243.7
	L298.2,210H268.8z M361.2,420.5L315,332.1l-46.2,88.4h29.4l16.8-33.7l16.8,33.7H361.2z M331.8,315.2l58.8,105.2H420l-58.8-105.2
	L420,210h-29.4L331.8,315.2z M210,210l58.8,105.2L210,420.5h29.4l58.8-105.2L239.4,210H210z"/>
<g>
	<path d="M1393,622c0-4.6,4.5-6.9,9.1-6.9c4.5,0,9,1.9,11,6.6l7.5-4.2c-3.3-6.7-10.1-10.7-18.5-10.7c-10.4,0-18.2,6.3-18.2,15.3
		c0,18.6,28.7,12.3,28.7,23.3c0,5-4.7,7-10.2,7c-6.4,0-11.1-3.1-12.7-8l-7.7,4.4c3,7.1,10.2,12,20.4,12c11,0,19.2-5.8,19.2-15.4
		C1421.7,626.6,1393,633,1393,622 M1351.6,615.3c7.7,0,15,4.7,16.5,14.9h-34.3C1335.3,621.2,1341.9,615.3,1351.6,615.3
		 M1333.8,637.9h43c0.2-1.3,0.3-2.7,0.3-4c0-14.4-10.1-27.1-25.5-27.1c-16,0-26.9,11.8-26.9,27c0,15.4,11,27,27.5,27
		c10.3,0,18.1-4.6,22.6-11.6l-7.6-4.3c-2.6,4.2-7.7,7.5-14.8,7.5C1342.9,652.4,1335.6,647.2,1333.8,637.9 M1296.4,660.8
		c10.1,0,18.8-5.3,23.1-13.3l-7.6-4.4c-2.9,5.3-8.5,8.9-15.5,8.9c-10.3,0-18.1-7.9-18.1-18.2c0-10.4,7.8-18.3,18.1-18.3
		c6.9,0,12.6,3.6,15.2,9l7.5-4.3c-3.9-8.1-12.5-13.4-22.7-13.4c-15.5,0-27,11.8-27,27C1269.4,649,1280.9,660.8,1296.4,660.8
		 M1240,606.9c-7.2,0-12.8,2.7-16.6,8.7v-7.4h-8.9v51.3h8.9v-27.2c0-12.1,6.7-16.9,14.9-16.9c7.9,0,12.7,4.7,12.7,13.1v31h8.9V628
		C1259.9,614.9,1252,606.9,1240,606.9 M1178.7,615.3c7.7,0,15,4.7,16.5,14.9h-34.3C1162.4,621.2,1169,615.3,1178.7,615.3
		 M1160.9,637.9h43c0.2-1.3,0.3-2.7,0.3-4c0-14.4-10.1-27.1-25.5-27.1c-16,0-26.9,11.8-26.9,27c0,15.4,11,27,27.5,27
		c10.3,0,18.1-4.6,22.6-11.6l-7.6-4.3c-2.6,4.2-7.7,7.5-14.8,7.5C1169.9,652.4,1162.7,647.2,1160.9,637.9 M1132.1,659.5h8.9v-51.3
		h-8.9V659.5z M1136.6,598.9c3.3,0,5.9-2.7,5.9-6c0-3.3-2.7-6.1-5.9-6.1c-3.4,0-6.1,2.8-6.1,6.1
		C1130.6,596.2,1133.2,598.9,1136.6,598.9 M1100.2,660.8c10.1,0,18.8-5.3,23.1-13.3l-7.6-4.4c-2.9,5.3-8.5,8.9-15.5,8.9
		c-10.3,0-18-7.9-18-18.2c0-10.4,7.8-18.3,18-18.3c6.9,0,12.6,3.6,15.2,9l7.5-4.3c-3.9-8.1-12.5-13.4-22.7-13.4
		c-15.5,0-27,11.8-27,27C1073.2,649,1084.7,660.8,1100.2,660.8 M1038.3,622c0-4.6,4.5-6.9,9.1-6.9c4.5,0,9,1.9,11,6.6l7.5-4.2
		c-3.3-6.7-10.1-10.7-18.5-10.7c-10.4,0-18.2,6.3-18.2,15.3c0,18.6,28.7,12.3,28.7,23.3c0,5-4.7,7-10.2,7c-6.4,0-11.1-3.1-12.7-8
		l-7.7,4.4c3,7.1,10.2,12,20.4,12c11,0,19.2-5.8,19.2-15.4C1067,626.6,1038.3,633,1038.3,622 M964.2,652.2
		c-10.3,0-18.2-7.9-18.2-18.4c0-10.5,7.9-18.4,18.2-18.4c10.4,0,18.3,7.9,18.3,18.4C982.5,644.3,974.6,652.2,964.2,652.2
		 M982.5,587.7V617c-4.1-6.3-10.7-10.2-19.4-10.2c-14.3,0-25.9,11.8-25.9,27c0,15.2,11.7,27,25.9,27c8.7,0,15.3-3.9,19.4-10.2v8.8
		h8.9v-71.8H982.5z M904.3,615.3c7.7,0,15,4.7,16.5,14.9h-34.3C888,621.2,894.7,615.3,904.3,615.3 M886.6,637.9h43
		c0.2-1.3,0.3-2.7,0.3-4c0-14.4-10.1-27.1-25.5-27.1c-16,0-26.9,11.8-26.9,27c0,15.4,11,27,27.5,27c10.3,0,18.1-4.6,22.6-11.6
		l-7.6-4.3c-2.6,4.2-7.7,7.5-14.8,7.5C895.6,652.4,888.3,647.2,886.6,637.9 M857.8,659.5h8.9v-51.3h-8.9V659.5z M862.3,598.9
		c3.3,0,6-2.7,6-6c0-3.3-2.7-6.1-6-6.1c-3.4,0-6.1,2.8-6.1,6.1C856.2,596.2,858.9,598.9,862.3,598.9 M835.2,659.5h8.9v-74.9h-8.9
		V659.5z M797.5,652.2c-10.4,0-18.3-7.9-18.3-18.4c0-10.5,7.9-18.4,18.3-18.4c10.3,0,18.2,7.9,18.2,18.4
		C815.6,644.3,807.7,652.2,797.5,652.2 M798.6,606.9c-8.7,0-15.3,3.9-19.4,10.2v-8.8h-8.9V680h8.9v-29.3
		c4.1,6.3,10.7,10.2,19.4,10.2c14.3,0,25.9-11.8,25.9-27C824.5,618.7,812.8,606.9,798.6,606.9 M732.5,652.2
		c-10.4,0-18.3-7.9-18.3-18.4c0-10.5,7.9-18.4,18.3-18.4c10.3,0,18.2,7.9,18.2,18.4C750.7,644.3,742.8,652.2,732.5,652.2
		 M733.7,606.9c-8.7,0-15.3,3.9-19.4,10.2v-8.8h-8.9V680h8.9v-29.3c4.1,6.3,10.7,10.2,19.4,10.2c14.3,0,25.9-11.8,25.9-27
		C759.6,618.7,747.9,606.9,733.7,606.9 M664.6,652.2c-10.3,0-18.2-7.9-18.2-18.4c0-10.5,7.9-18.4,18.2-18.4
		c10.4,0,18.3,7.9,18.3,18.4C682.9,644.3,675,652.2,664.6,652.2 M682.9,608.2v8.8c-4.1-6.3-10.7-10.2-19.4-10.2
		c-14.3,0-25.9,11.8-25.9,27c0,15.2,11.7,27,25.9,27c8.7,0,15.3-3.9,19.4-10.2v8.8h8.9v-51.3H682.9z M608,595v-8.6
		c-14.7-1-22.5,6.7-22.5,20.3v1.5h-8.2v8.6h8.2v42.7h8.9v-42.7H608v-8.6h-13.5v-1.5C594.5,597.7,599.1,594.3,608,595 M546,652.1
		c-10.2,0-18.1-7.9-18.1-18.3c0-10.4,7.9-18.3,18.1-18.3c10.3,0,18.2,7.9,18.2,18.3C564.1,644.2,556.2,652.1,546,652.1 M546,660.8
		c15,0,27.1-11.8,27.1-27c0-15.2-12.1-27-27.1-27c-15,0-27,11.8-27,27C519,649,531,660.8,546,660.8"/>
	<path d="M1259.1,432.3l-18.8,56.9l-22-56.9h-23.9l34.7,82c-4.1,11.4-10.2,16.4-22.2,16.3v20.3c21.5,1.2,35.9-9.5,44.7-33.9
		l30.8-84.7H1259.1z M1186.6,453.3v-21h-19.1v-23.7l-21.9,6.6v17.1h-14.7v21h14.7v35.2c0,22.9,10.3,31.9,41,28.5v-19.8
		c-12.5,0.7-19.1,0.5-19.1-8.6v-35.2H1186.6z M1096.3,517h21.9v-84.7h-21.9V517z M1107.2,422.1c7.5,0,13.6-6.1,13.6-13.4
		c0-7.3-6.1-13.6-13.6-13.6c-7.3,0-13.4,6.3-13.4,13.6C1093.8,416,1099.9,422.1,1107.2,422.1 M1038.5,456.3c0-4.6,4.4-6.9,9.8-6.9
		c6.3,0,11,3.2,13.6,8.6l18.6-10.2c-6.6-11.7-18.5-18-32.2-18c-17.5,0-32.2,9.7-32.2,26.9c0,29.8,43.7,23,43.7,35.4
		c0,4.9-4.7,7.3-11.7,7.3c-8.5,0-14.2-4.1-16.6-11l-19,10.7c6.1,13,18.6,20.2,35.6,20.2c18.1,0,34.1-8.8,34.1-27.1
		C1082.2,461.1,1038.5,468.9,1038.5,456.3 M982.6,446.8v-14.6h-21.9V517h21.9v-40.5c0-17.8,14.4-22.9,25.8-21.5v-24.4
		C997.7,430.6,987,435.3,982.6,446.8 M880.4,466.6c2.5-10.8,10.5-17.1,22.2-17.1c9.2,0,18.3,4.9,21,17.1H880.4z M880.8,483.6h63.9
		c0.5-2.9,0.8-5.8,0.8-9c0-24.9-17.8-44.7-42.9-44.7c-26.6,0-44.7,19.5-44.7,44.7c0,25.2,18,44.7,46.4,44.7c16.3,0,29-6.6,36.9-18.1
		l-17.6-10.2c-3.7,4.9-10.5,8.5-19,8.5C893.1,499.5,883.8,494.8,880.8,483.6 M831.1,432.3l-20.7,59.3l-20.5-59.3h-24.1l32.2,84.7
		H823l32.2-84.7H831.1z M733.5,517h21.9v-84.7h-21.9V517z M744.4,422.1c7.5,0,13.6-6.1,13.6-13.4c0-7.3-6.1-13.6-13.6-13.6
		c-7.3,0-13.4,6.3-13.4,13.6C731,416,737.1,422.1,744.4,422.1 M682.9,429.9c-11.4,0-20.2,4.2-25.2,11.9v-9.5h-21.9V517h21.9v-45.8
		c0-14.7,8-21,18.6-21c9.8,0,16.8,5.9,16.8,17.5V517h21.9v-52C714.9,442.4,700.8,429.9,682.9,429.9 M570.3,519.3
		c26.1,0,45.4-15.6,45.4-41.2v-79.8h-23.4v77.9c0,11.5-6.1,20.2-22,20.2c-15.9,0-22-8.6-22-20.2v-77.9h-23.2v79.8
		C525.1,503.8,544.4,519.3,570.3,519.3"/>
	<path d="M1416.4,329.7h21.9V206h-21.9V329.7z M1351.2,311.2c-13.4,0-23.4-9.7-23.4-23.9c0-14.2,10-23.9,23.4-23.9
		c13.6,0,23.6,9.7,23.6,23.9C1374.7,301.6,1364.7,311.2,1351.2,311.2 M1374.7,245v10c-6.1-7.6-15.3-12.4-27.6-12.4
		c-22.5,0-41.2,19.5-41.2,44.7c0,25.2,18.6,44.7,41.2,44.7c12.4,0,21.5-4.7,27.6-12.4v10h21.9V245H1374.7z M1268.5,329.7h21.9V245
		h-21.9V329.7z M1279.3,234.8c7.5,0,13.6-6.1,13.6-13.4c0-7.3-6.1-13.6-13.6-13.6c-7.3,0-13.4,6.3-13.4,13.6
		C1265.9,228.7,1272,234.8,1279.3,234.8 M1253,266v-21h-19.1v-23.7l-21.9,6.6V245h-14.7v21h14.7v35.2c0,22.9,10.3,31.9,41,28.5
		v-19.8c-12.5,0.7-19.1,0.5-19.1-8.6V266H1253z M1153.9,242.6c-11.4,0-20.2,4.2-25.2,11.9V245h-21.9v84.7h21.9v-45.8
		c0-14.7,8-21,18.6-21c9.8,0,16.8,5.9,16.8,17.5v49.3h21.9v-52C1185.9,255.1,1171.9,242.6,1153.9,242.6 M1026.5,279.4
		c2.5-10.8,10.5-17.1,22.2-17.1c9.2,0,18.3,4.9,21,17.1H1026.5z M1026.8,296.3h63.9c0.5-2.9,0.8-5.8,0.8-9
		c0-24.9-17.8-44.7-42.9-44.7c-26.6,0-44.7,19.5-44.7,44.7c0,25.2,18,44.7,46.4,44.7c16.3,0,29-6.6,36.9-18.1l-17.6-10.2
		c-3.7,4.9-10.5,8.5-19,8.5C1039.2,312.2,1029.9,307.5,1026.8,296.3 M957.7,242.6c-11.4,0-20.2,4.2-25.2,11.9V245h-21.9v84.7h21.9
		v-45.8c0-14.7,8-21,18.6-21c9.8,0,16.8,5.9,16.8,17.5v49.3h21.9v-52C989.7,255.1,975.7,242.6,957.7,242.6 M850.3,310.7
		c-12.9,0-22.9-9.7-22.9-23.4c0-13.7,10-23.4,22.9-23.4c13,0,23,9.7,23,23.4C873.3,301.1,863.3,310.7,850.3,310.7 M850.3,332.1
		c24.9,0,44.9-19.5,44.9-44.7c0-25.2-20-44.7-44.9-44.7c-24.9,0-44.7,19.5-44.7,44.7C805.5,312.6,825.4,332.1,850.3,332.1
		 M749.1,311.2c-13.4,0-23.4-9.7-23.4-23.9c0-14.2,10-23.9,23.4-23.9c13.6,0,23.6,9.7,23.6,23.9
		C772.7,301.6,762.7,311.2,749.1,311.2 M753.2,242.6c-12.4,0-21.4,4.6-27.4,12.4v-10h-21.9v118.6h21.9v-43.9
		c6.1,7.8,15.1,12.4,27.4,12.4c22.7,0,41.3-19.5,41.3-44.7C794.5,262.1,775.9,242.6,753.2,242.6 M693,329.7l-31-43.4l29.7-41.3
		h-25.1l-17.1,23.9L632.4,245h-25.2l29.7,41.5l-31,43.2H631l18.5-25.8l18.3,25.8H693z M549.5,307.3v-26.6h44.9v-22h-44.9v-25.2h49.1
		v-22.4h-72.5v118.6h73.4v-22.4H549.5z"/>
</g>
</svg>
